<?xml version="1.0" encoding="iso-8859-1"?>
<!-- Generator: Adobe Illustrator 19.0.0, SVG Export Plug-In . SVG Version: 6.00 Build 0)  -->
<svg version="1.1" id="Capa_1" xmlns="http://www.w3.org/2000/svg" xmlns:xlink="http://www.w3.org/1999/xlink" x="0px" y="0px"
	 viewBox="0 0 512.256 512.256" style="enable-background:new 0 0 512.256 512.256;" xml:space="preserve">
<g transform="translate(-1)">
	<g>
		<g>
			<path d="M478.995,315.797c-6.074,0.03-12.027,1.702-17.229,4.838l-19.405-19.405c-1.6-1.6-3.77-2.5-6.033-2.5h-59.733v-34.133
				h69.478c4.297,16.643,20.299,27.494,37.35,25.328c17.051-2.166,29.832-16.673,29.832-33.861s-12.781-31.695-29.832-33.861
				c-17.051-2.166-33.053,8.685-37.35,25.328h-69.478v-34.133h59.733c2.263,0,4.433-0.9,6.033-2.5l19.405-19.405
				c5.202,3.137,11.155,4.809,17.229,4.838c18.851,0,34.133-15.282,34.133-34.133s-15.282-34.133-34.133-34.133
				s-34.133,15.282-34.133,34.133c0.03,6.074,1.702,12.027,4.838,17.229l-16.905,16.905h-56.201v-17.067
				c0-9.426-7.641-17.067-17.067-17.067h-8.533V93.931c0-51.841-42.026-93.867-93.867-93.867s-93.867,42.026-93.867,93.867v68.267
				h-8.533c-9.426,0-17.067,7.641-17.067,17.067v17.067h-56.2l-16.905-16.905c3.137-5.202,4.809-11.155,4.838-17.229
				c0-18.851-15.282-34.133-34.133-34.133S1.128,143.346,1.128,162.197s15.282,34.133,34.133,34.133
				c6.074-0.03,12.027-1.702,17.229-4.838l19.405,19.405c1.6,1.6,3.77,2.5,6.033,2.5h59.733v34.133H68.183
				c-4.297-16.643-20.299-27.494-37.35-25.328S1,238.876,1,256.064s12.781,31.695,29.832,33.861
				c17.051,2.166,33.053-8.685,37.35-25.328h69.478v34.133H77.928c-2.263,0-4.433,0.9-6.033,2.5L52.49,320.636
				c-5.202-3.137-11.155-4.809-17.229-4.838c-18.851,0-34.133,15.282-34.133,34.133c0,18.851,15.282,34.133,34.133,34.133
				s34.133-15.282,34.133-34.133c-0.03-6.074-1.702-12.027-4.838-17.229l16.905-16.905h56.883
				c4.259,29.351,29.392,51.143,59.051,51.2v39.134l-42.505,42.505c-5.202-3.137-11.155-4.809-17.229-4.838
				c-18.851,0-34.133,15.282-34.133,34.133s15.282,34.133,34.133,34.133s34.133-15.282,34.133-34.133
				c-0.03-6.074-1.702-12.027-4.838-17.229l45.005-45.005c1.6-1.6,2.5-3.77,2.5-6.033v-42.667h34.133v78.012
				c-16.643,4.297-27.494,20.299-25.328,37.35c2.166,17.051,16.673,29.832,33.861,29.832s31.695-12.781,33.861-29.832
				c2.166-17.051-8.685-33.053-25.328-37.35v-78.012h34.133v42.667c0,2.263,0.9,4.433,2.5,6.033l45.005,45.005
				c-3.137,5.202-4.809,11.155-4.838,17.229c0,18.851,15.282,34.133,34.133,34.133s34.133-15.282,34.133-34.133
				s-15.282-34.133-34.133-34.133c-6.074,0.03-12.027,1.702-17.229,4.838l-42.505-42.505v-39.134
				c29.659-0.057,54.792-21.849,59.051-51.2h56.883l16.905,16.905c-3.137,5.202-4.809,11.155-4.838,17.229
				c0,18.851,15.282,34.133,34.133,34.133s34.133-15.282,34.133-34.133C513.128,331.079,497.846,315.797,478.995,315.797z
				 M478.995,238.997c9.426,0,17.067,7.641,17.067,17.067s-7.641,17.067-17.067,17.067s-17.067-7.641-17.067-17.067
				S469.569,238.997,478.995,238.997z M463.235,155.676c2.637-6.379,8.857-10.541,15.76-10.546
				c7.725-0.005,14.49,5.178,16.494,12.639c2.004,7.46-1.252,15.337-7.94,19.203c-6.688,3.866-15.138,2.759-20.604-2.7
				C462.062,169.394,460.598,162.055,463.235,155.676z M47.336,174.246c-4.878,4.883-12.217,6.348-18.596,3.71
				c-6.379-2.637-10.541-8.857-10.546-15.76c-0.005-7.725,5.178-14.49,12.639-16.494s15.337,1.252,19.203,7.94
				C53.903,160.33,52.795,168.781,47.336,174.246z M35.261,273.131c-9.426,0-17.067-7.641-17.067-17.067s7.641-17.067,17.067-17.067
				s17.067,7.641,17.067,17.067S44.687,273.131,35.261,273.131z M51.021,356.452c-2.637,6.379-8.857,10.541-15.76,10.546
				c-7.725,0.005-14.49-5.178-16.494-12.639c-2.004-7.46,1.252-15.337,7.94-19.203c6.688-3.867,15.138-2.759,20.604,2.7
				C52.194,342.734,53.658,350.073,51.021,356.452z M153.421,484.452c-2.637,6.379-8.857,10.541-15.76,10.546
				c-7.725,0.005-14.49-5.178-16.494-12.639c-2.004-7.46,1.252-15.337,7.94-19.203c6.688-3.866,15.138-2.759,20.604,2.7
				C154.594,470.734,156.058,478.073,153.421,484.452z M364.52,465.882c4.878-4.883,12.217-6.348,18.596-3.71
				c6.379,2.637,10.541,8.857,10.546,15.76c0.006,7.725-5.178,14.49-12.639,16.494c-7.46,2.004-15.337-1.252-19.203-7.94
				S359.061,471.347,364.52,465.882z M180.328,93.931c0-42.416,34.385-76.8,76.8-76.8s76.8,34.385,76.8,76.8v68.267h-153.6V93.931z
				 M274.195,477.931c0,9.426-7.641,17.067-17.067,17.067c-9.426,0-17.067-7.641-17.067-17.067s7.641-17.067,17.067-17.067
				C266.554,460.864,274.195,468.505,274.195,477.931z M359.528,196.331h-25.6c-4.713,0-8.533,3.82-8.533,8.533
				s3.821,8.533,8.533,8.533h25.6v17.067h-25.6c-4.713,0-8.533,3.82-8.533,8.533s3.821,8.533,8.533,8.533h25.6v17.067h-25.6
				c-4.713,0-8.533,3.821-8.533,8.533c0,4.713,3.821,8.533,8.533,8.533h25.6v17.067h-25.6c-4.713,0-8.533,3.82-8.533,8.533
				s3.821,8.533,8.533,8.533h24.747c-4.083,19.852-21.546,34.108-41.813,34.133H197.395c-20.268-0.026-37.731-14.281-41.813-34.133
				h24.747c4.713,0,8.533-3.82,8.533-8.533s-3.82-8.533-8.533-8.533h-25.6v-17.067h25.6c4.713,0,8.533-3.821,8.533-8.533
				c0-4.713-3.82-8.533-8.533-8.533h-25.6v-17.067h25.6c4.713,0,8.533-3.82,8.533-8.533s-3.82-8.533-8.533-8.533h-25.6v-17.067h25.6
				c4.713,0,8.533-3.821,8.533-8.533s-3.82-8.533-8.533-8.533h-25.6v-17.067h204.8V196.331z M483.423,366.425
				c-7.46,2.004-15.337-1.252-19.203-7.94s-2.759-15.138,2.7-20.604c4.878-4.883,12.217-6.348,18.596-3.71
				c6.379,2.637,10.541,8.857,10.546,15.76C496.067,357.655,490.883,364.421,483.423,366.425z"/>
			<path d="M248.595,271.56v18.637c0,4.713,3.82,8.533,8.533,8.533c4.713,0,8.533-3.82,8.533-8.533V271.56
				c11.747-4.137,18.796-16.144,16.686-28.417c-2.11-12.274-12.765-21.236-25.219-21.212c-12.454-0.024-23.109,8.939-25.219,21.212
				C229.798,255.417,236.848,267.423,248.595,271.56z M257.128,238.997c4.713,0,8.533,3.82,8.533,8.533s-3.82,8.533-8.533,8.533
				c-4.713,0-8.533-3.82-8.533-8.533S252.415,238.997,257.128,238.997z"/>
		</g>
	</g>
</g>
<g>
</g>
<g>
</g>
<g>
</g>
<g>
</g>
<g>
</g>
<g>
</g>
<g>
</g>
<g>
</g>
<g>
</g>
<g>
</g>
<g>
</g>
<g>
</g>
<g>
</g>
<g>
</g>
<g>
</g>
</svg>
