<svg xmlns="http://www.w3.org/2000/svg" xmlns:xlink="http://www.w3.org/1999/xlink" width="32" height="32" viewBox="0 0 32 32"><defs><linearGradient id="a" x2="32" y2="32" gradientUnits="userSpaceOnUse"><stop offset="0" stop-color="#095797"/><stop offset="0.26" stop-color="#0b5c9f"/><stop offset="0.66" stop-color="#0f6ab5"/><stop offset="1" stop-color="#1479cc"/></linearGradient></defs><rect width="32" height="32" fill="url(#a)"/><path d="M15.44,16.27a7.34,7.34,0,0,1-.52,2.86A4.65,4.65,0,0,1,13.45,21l2,1.56-1.31,1.18-2.47-2a4.88,4.88,0,0,1-1,.11,4.64,4.64,0,0,1-2.51-.69,4.59,4.59,0,0,1-1.71-2,6.92,6.92,0,0,1-.61-2.94v-.65a7,7,0,0,1,.61-3,4.49,4.49,0,0,1,1.69-2A4.62,4.62,0,0,1,10.61,10a4.72,4.72,0,0,1,2.53.68,4.46,4.46,0,0,1,1.69,2,7.07,7.07,0,0,1,.61,3Zm-2-.6a5.06,5.06,0,0,0-.73-3,2.42,2.42,0,0,0-2.07-1,2.37,2.37,0,0,0-2,1,4.94,4.94,0,0,0-.75,2.88v.68a5.11,5.11,0,0,0,.74,2.94,2.37,2.37,0,0,0,2.07,1.06,2.37,2.37,0,0,0,2.06-1,5.14,5.14,0,0,0,.72-3Z" fill="#fff"/><path d="M26.34,18A4.23,4.23,0,0,1,25,20.89a4.7,4.7,0,0,1-3.18,1,4.48,4.48,0,0,1-2.44-.66,4.26,4.26,0,0,1-1.63-1.87,6.64,6.64,0,0,1-.6-2.81V15.51a6.79,6.79,0,0,1,.58-2.9,4.42,4.42,0,0,1,1.67-1.92A4.59,4.59,0,0,1,21.88,10a4.47,4.47,0,0,1,3.1,1A4.34,4.34,0,0,1,26.34,14h-2a2.84,2.84,0,0,0-.73-1.8,2.41,2.41,0,0,0-1.72-.56,2.36,2.36,0,0,0-2,1,4.84,4.84,0,0,0-.72,2.82v1a5.07,5.07,0,0,0,.68,2.87,2.23,2.23,0,0,0,2,1,2.61,2.61,0,0,0,1.78-.53A2.81,2.81,0,0,0,24.33,18Z" fill="#fff"/></svg>