<?xml version="1.0" encoding="UTF-8" standalone="no"?>
<!-- Created with Inkscape (http://www.inkscape.org/) -->

<svg
   version="1.1"
   id="svg3519"
   width="682.66669"
   height="682.66669"
   viewBox="0 0 682.66669 682.66669"
   xmlns="http://www.w3.org/2000/svg"
   xmlns:svg="http://www.w3.org/2000/svg">
  <defs
     id="defs3523">
    <clipPath
       clipPathUnits="userSpaceOnUse"
       id="clipPath3533">
      <path
         d="M 0,512 H 512 V 0 H 0 Z"
         id="path3531" />
    </clipPath>
  </defs>
  <g
     id="g3525"
     transform="matrix(1.3333333,0,0,-1.3333333,0,682.66667)">
    <g
       id="g3527">
      <g
         id="g3529"
         clip-path="url(#clipPath3533)">
        <g
           id="g3535"
           transform="translate(350.9902,101.6602)">
          <path
             d="m 0,0 109.649,34.55 c 15.561,5.19 33.771,-1.62 39.431,-17.02 5.54,-15.091 -1.33,-30.82 -14.61,-37.46 L -6.54,-87.44 c -5.561,-2.77 -11.681,-4.22 -17.891,-4.22 H -202.88 c -7.9,0 -15.62,2.34 -22.19,6.72 l -29.92,19.95 V 48.34 l 8.929,3.19 c 47.081,16.829 99.391,9.949 140.521,-18.48 3.742,-3.143 8.353,-4.71 12.899,-4.71 H -29.95 C -13.94,28.34 -0.86,15.8 0,0"
             style="fill:#fed2a4;fill-opacity:1;fill-rule:nonzero;stroke:none"
             id="path3537" />
        </g>
        <g
           id="g3539"
           transform="translate(372,502)">
          <path
             d="m 0,0 c 71.8,0 130,-58.2 130,-130 0,-71.8 -58.2,-130 -130,-130 -17.73,0 -34.64,3.55 -50.04,9.98 L -110,-280 l 15.25,60.99 C -116.61,-195.75 -130,-164.44 -130,-130 -130,-58.2 -71.8,0 0,0"
             style="fill:#9ed0ff;fill-opacity:1;fill-rule:nonzero;stroke:none"
             id="path3541" />
        </g>
        <path
           d="M 96,10 H 10 v 160 h 86 z"
           style="fill:#ff8597;fill-opacity:1;fill-rule:nonzero;stroke:none"
           id="path3543" />
        <g
           id="g3545"
           transform="translate(372,452)">
          <path
             d="m 0,0 c 5.52,0 10,-4.48 10,-10 0,-5.52 -4.48,-10 -10,-10 -5.52,0 -10,4.48 -10,10 0,5.52 4.48,10 10,10"
             style="fill:#000000;fill-opacity:1;fill-rule:nonzero;stroke:none"
             id="path3547" />
        </g>
        <g
           id="g3549"
           transform="translate(176,80)">
          <path
             d="m 0,0 c 5.52,0 10,-4.48 10,-10 0,-5.52 -4.48,-10 -10,-10 -5.52,0 -10,4.48 -10,10 0,5.52 4.48,10 10,10"
             style="fill:#000000;fill-opacity:1;fill-rule:nonzero;stroke:none"
             id="path3551" />
        </g>
        <g
           id="g3553"
           transform="translate(96,36.6699)">
          <path
             d="m 0,0 v -26.67 h -86 v 160 H 0 Z"
             style="fill:none;stroke:#000000;stroke-width:20;stroke-linecap:round;stroke-linejoin:round;stroke-miterlimit:10;stroke-dasharray:none;stroke-opacity:1"
             id="path3555" />
        </g>
        <g
           id="g3557"
           transform="translate(350.9902,101.6602)">
          <path
             d="m 0,0 109.649,34.55 c 15.561,5.19 33.771,-1.62 39.431,-17.02 5.54,-15.091 -1.33,-30.82 -14.61,-37.46 L -6.54,-87.44 c -5.561,-2.77 -11.681,-4.22 -17.891,-4.22 H -202.88 c -7.9,0 -15.62,2.34 -22.19,6.72 l -29.92,19.95"
             style="fill:none;stroke:#000000;stroke-width:20;stroke-linecap:round;stroke-linejoin:round;stroke-miterlimit:10;stroke-dasharray:none;stroke-opacity:1"
             id="path3559" />
        </g>
        <g
           id="g3561"
           transform="translate(277.25,282.9902)">
          <path
             d="m 0,0 -15.25,-60.99 59.96,29.98 c 15.4,-6.43 32.31,-9.98 50.04,-9.98 71.8,0 130,58.2 130,130 0,71.8 -58.2,130 -130,130 -71.8,0 -130,-58.2 -130,-130 C -35.25,54.569 -21.86,23.26 0,0 Z"
             style="fill:none;stroke:#000000;stroke-width:20;stroke-linecap:round;stroke-linejoin:round;stroke-miterlimit:10;stroke-dasharray:none;stroke-opacity:1"
             id="path3563" />
        </g>
        <g
           id="g3565"
           transform="translate(96,150)">
          <path
             d="m 0,0 8.93,3.19 c 47.08,16.83 99.39,9.95 140.52,-18.48 1.81,-1.52 3.85,-2.7 6.03,-3.49 2.19,-0.8 4.51,-1.22 6.87,-1.22 h 62.69 c 16.01,0 29.09,-12.54 29.95,-28.34 0.03,-0.55 0.05,-1.1 0.05,-1.66 0,-16.57 -13.43,-30 -30,-30 H 123.37"
             style="fill:none;stroke:#000000;stroke-width:20;stroke-linecap:round;stroke-linejoin:round;stroke-miterlimit:10;stroke-dasharray:none;stroke-opacity:1"
             id="path3567" />
        </g>
        <g
           id="g3569"
           transform="translate(372,402)">
          <path
             d="M 0,0 V -100"
             style="fill:none;stroke:#000000;stroke-width:20;stroke-linecap:round;stroke-linejoin:round;stroke-miterlimit:10;stroke-dasharray:none;stroke-opacity:1"
             id="path3571" />
        </g>
      </g>
    </g>
  </g>
</svg>
